<svg xmlns="http://www.w3.org/2000/svg" viewBox="0 0 880 1280" role="img" aria-labelledby="t d">
<title id="t">DevilNFC / NFCMultiPay NFC relay kill chain</title>
<desc id="d">Two-lane diagram. Left lane is the victim unrooted phone: smishing delivery, sideloaded fake-bank APK, DevilNFC Kiosk lock, card tap in passive reader role, critical PIN-overlay capture, SMS/OTP interception, and exfiltration. Right lane is the operator estate: C2 template and panel server, relay broker (raw-TCP Protobuf for DevilNFC, MQTT 1883 for NFCMultiPay), critical rooted tapper acting as a Host Card Emulator with an Xposed findSelectAid AID-reroute, the POS or ATM terminal where the relayed card is cashed out, the Telegram exfiltration channel, and the NFCMultiPay REST-to-MQTT variant. Critical anchors in red are the PIN-overlay capture and the HCE AID-reroute on the tapper.</desc>
<defs>
<style><![CDATA[
.bg { fill: #ffffff; }
.head { font: 700 18px sans-serif; fill: #0a0a0a; }
.meta { font: 11px sans-serif; fill: #404040; }
.laneL { fill: #f3f7fb; stroke: #5a7da6; stroke-width: 1.2; }
.laneR { fill: #faf3ee; stroke: #b07a3a; stroke-width: 1.2; }
.laneLabelL { font: 700 12px sans-serif; fill: #2a4a6a; }
.laneLabelR { font: 700 12px sans-serif; fill: #8a5520; }
.stage { fill: #ffffff; stroke: #5a7da6; stroke-width: 1.1; }
.stageK { fill: #fdecec; stroke: #b03030; stroke-width: 1.4; }
.op { fill: #ffffff; stroke: #b07a3a; stroke-width: 1.1; }
.opK { fill: #fdecec; stroke: #b03030; stroke-width: 1.4; }
.band { fill: #f7f1eb; stroke: #c08555; stroke-width: 1.2; }
.badge { fill: #5a7da6; }
.badgeK { fill: #b03030; }
.badgeR { fill: #b07a3a; }
.badgeText { font: 700 12px sans-serif; fill: #ffffff; text-anchor: middle; }
.label { font: 700 13px sans-serif; fill: #0a0a0a; }
.sub { font: 11px sans-serif; fill: #303030; }
.mono { font: 10.5px ui-monospace, "SFMono-Regular", Consolas, monospace; fill: #303030; }
.footer { fill: #f6f6f4; stroke: #888; stroke-width: 1; }
.footerH { font: 700 12px sans-serif; fill: #1a1a1a; }
.footerT { font: 10.5px sans-serif; fill: #1a1a1a; }
.arrow { stroke: #2a4a6a; stroke-width: 1.6; fill: none; }
.arrowX { stroke: #7a3a7a; stroke-width: 1.6; fill: none; stroke-dasharray: 5 3; }
.arrowR { stroke: #8a5520; stroke-width: 1.6; fill: none; }

@media (prefers-color-scheme: dark) {
  .bg { fill: #0d1117; }
  .head, .label, .footerH { fill: #f0f0f0; }
  .meta, .sub, .footerT { fill: #c8c8c8; }
  .mono { fill: #c0d0e0; }
  .laneL { fill: #182230; stroke: #7aa6d0; }
  .laneR { fill: #2a2418; stroke: #d09a5a; }
  .laneLabelL { fill: #a8c6e2; }
  .laneLabelR { fill: #e2bf8a; }
  .stage { fill: #1c2530; stroke: #7aa6d0; }
  .stageK { fill: #3a1818; stroke: #e06060; }
  .op { fill: #2a2418; stroke: #d09a5a; }
  .opK { fill: #3a1818; stroke: #e06060; }
  .band { fill: #2a2418; stroke: #d09a5a; }
  .badge { fill: #7aa6d0; }
  .badgeK { fill: #e06060; }
  .badgeR { fill: #d09a5a; }
  .badgeText { fill: #0d1117; }
  .footer { fill: #1a1d22; stroke: #555; }
  .arrow { stroke: #a8c6e2; }
  .arrowX { stroke: #c898d0; }
  .arrowR { stroke: #e2bf8a; }
}
]]></style>
<marker id="ah" viewBox="0 0 10 10" refX="9" refY="5" markerWidth="7" markerHeight="7" orient="auto">
  <path d="M0,0 L10,5 L0,10 z" fill="currentColor"/>
</marker>
</defs>
<rect class="bg" x="0" y="0" width="880" height="1280"/>
<text class="head" x="20" y="36">DevilNFC / NFCMultiPay - Android NFC relay fraud</text>
<text class="meta" x="20" y="58">Vendor: Cleafy TIR - Date: 2026-05-18 - Clusters: DevilNFC (ES) + NFCMultiPay (BR) - Day 47</text>

<rect class="laneL" x="20" y="85" width="410" height="1080"/>
<rect class="laneR" x="450" y="85" width="410" height="1080"/>
<text class="laneLabelL" x="30" y="105">VICTIM PHONE (unrooted, passive reader role)</text>
<text class="laneLabelR" x="460" y="105">OPERATOR INFRA + ROOTED TAPPER (HCE)</text>

<!-- LEFT STAGE 1 -->
<rect class="stage" x="30" y="120" width="395" height="135"/>
<circle class="badge" cx="50" cy="140" r="14"/>
<text class="badgeText" x="50" y="144">1</text>
<text class="label" x="74" y="144">Delivery - smishing / WhatsApp</text>
<text class="sub" x="40" y="168">Fake bank "security update" page imitating</text>
<text class="sub" x="40" y="184">the Google Play Store; off-store APK link.</text>
<text class="sub" x="40" y="200">T1660 Phishing (Mobile).</text>
<text class="mono" x="40" y="226">lure: "cuenta bloqueada, instale update"</text>
<text class="mono" x="40" y="244">-&gt; APK download (non-store)</text>

<!-- LEFT STAGE 2 -->
<rect class="stage" x="30" y="270" width="395" height="135"/>
<circle class="badge" cx="50" cy="290" r="14"/>
<text class="badgeText" x="50" y="294">2</text>
<text class="label" x="74" y="294">Install - sideloaded fake-bank APK</text>
<text class="sub" x="40" y="318">Masquerades as the bank's official app;</text>
<text class="sub" x="40" y="334">requests NFC + SMS + overlay grants.</text>
<text class="sub" x="40" y="350">T1655.001 Match Legitimate Name.</text>
<text class="mono" x="40" y="376">pkg: com.devilnfc.reader</text>
<text class="mono" x="40" y="394">md5: caa5e8cf...e88c2</text>

<!-- LEFT STAGE 3 -->
<rect class="stage" x="30" y="420" width="395" height="135"/>
<circle class="badge" cx="50" cy="440" r="14"/>
<text class="badgeText" x="50" y="444">3</text>
<text class="label" x="74" y="444">Kiosk lock - victim trapped</text>
<text class="sub" x="40" y="468">KioskActivity: lockTask, system UI hidden,</text>
<text class="sub" x="40" y="484">back button neutralised; template from C2.</text>
<text class="sub" x="40" y="500">T1541 Foreground Persistence.</text>
<text class="mono" x="40" y="526">KioskActivity + WebView (remote template)</text>
<text class="mono" x="40" y="544">no exit while relay runs</text>

<!-- LEFT STAGE 4 -->
<rect class="stage" x="30" y="570" width="395" height="135"/>
<circle class="badge" cx="50" cy="590" r="14"/>
<text class="badgeText" x="50" y="594">4</text>
<text class="label" x="74" y="594">Card tap - reader role</text>
<text class="sub" x="40" y="618">Victim holds card to phone; standard</text>
<text class="sub" x="40" y="634">ISO-DEP read, only android.permission.NFC.</text>
<text class="sub" x="40" y="650">Live APDU stream relayed to tapper.</text>
<text class="mono" x="40" y="676">reader: nothing suspicious to a scanner</text>
<text class="mono" x="40" y="694">APDU -&gt; relay broker</text>

<!-- LEFT STAGE 5 (critical) -->
<rect class="stageK" x="30" y="720" width="395" height="135"/>
<circle class="badgeK" cx="50" cy="740" r="14"/>
<text class="badgeText" x="50" y="744">5</text>
<text class="label" x="74" y="744">PIN overlay capture (CRITICAL)</text>
<text class="sub" x="40" y="768">Fake "verification" pop-up harvests 4-digit</text>
<text class="sub" x="40" y="784">PIN; fake error extends relay window ~10s.</text>
<text class="sub" x="40" y="800">T1417.002 GUI Input Capture.</text>
<text class="mono" x="40" y="826">POST api_pin.php pin=&amp;bank=&amp;ip=</text>
<text class="mono" x="40" y="844">+ e-banking password (2nd form)</text>

<!-- LEFT STAGE 6 -->
<rect class="stage" x="30" y="870" width="395" height="135"/>
<circle class="badge" cx="50" cy="890" r="14"/>
<text class="badgeText" x="50" y="894">6</text>
<text class="label" x="74" y="894">SMS / OTP interception</text>
<text class="sub" x="40" y="918">SmsPermissionManager polls inbound SMS,</text>
<text class="sub" x="40" y="934">forwards bank OTPs in real time.</text>
<text class="sub" x="40" y="950">T1636.004 SMS / T1582 SMS Control.</text>
<text class="mono" x="40" y="976">OTP -&gt; C2 -&gt; Telegram channel</text>
<text class="mono" x="40" y="994">defeats SMS-OTP on relayed txn</text>

<!-- LEFT STAGE 7 -->
<rect class="stage" x="30" y="1020" width="395" height="135"/>
<circle class="badge" cx="50" cy="1040" r="14"/>
<text class="badgeText" x="50" y="1044">7</text>
<text class="label" x="74" y="1044">Exfiltration to C2 + Telegram</text>
<text class="sub" x="40" y="1068">PIN + PAN-last4 + brand + bank + public IP</text>
<text class="sub" x="40" y="1084">in plaintext to two destinations.</text>
<text class="sub" x="40" y="1100">T1646 Exfiltration Over C2 Channel.</text>
<text class="mono" x="40" y="1126">nfcrackatm[.]com / spicynagets[.]shop</text>
<text class="mono" x="40" y="1144">+ Telegram bot sendMessage</text>

<!-- RIGHT OP 1 -->
<rect class="op" x="460" y="125" width="395" height="155"/>
<circle class="badgeR" cx="480" cy="145" r="14"/>
<text class="badgeText" x="480" y="149">C</text>
<text class="label" x="504" y="149">C2 template + operator panel</text>
<text class="sub" x="470" y="173">Serves the fake banking template fetched</text>
<text class="sub" x="470" y="189">by KioskActivity; manages active sessions.</text>
<text class="sub" x="470" y="205">DevilNFC panel = native Spanish.</text>
<text class="sub" x="470" y="221">Over-engineered CSS/JS = AI-assisted tell.</text>
<text class="mono" x="470" y="251">nfcrackatm[.]com, spicynagets[.]shop</text>
<text class="mono" x="470" y="269">api_pin.php (PIN/password sink)</text>

<!-- RIGHT OP 2 -->
<rect class="op" x="460" y="295" width="395" height="155"/>
<circle class="badgeR" cx="480" cy="315" r="14"/>
<text class="badgeText" x="480" y="319">R</text>
<text class="label" x="504" y="319">Relay broker (live APDU tunnel)</text>
<text class="sub" x="470" y="343">DevilNFC: raw TCP + Protobuf state machine</text>
<text class="sub" x="470" y="359">OP_SYN/ACK/PSH/FIN, TCP_NODELAY.</text>
<text class="sub" x="470" y="375">NFCMultiPay: REST poll then MQTT 1883.</text>
<text class="sub" x="470" y="391">T1437.001 Web Protocols.</text>
<text class="mono" x="470" y="421">185.203.116[.]18 / 47.253.167[.]219</text>
<text class="mono" x="470" y="439">MQTT 1883 retained card_ready topic</text>

<!-- RIGHT OP 3 (critical) -->
<rect class="opK" x="460" y="465" width="395" height="155"/>
<circle class="badgeK" cx="480" cy="485" r="14"/>
<text class="badgeText" x="480" y="489">T</text>
<text class="label" x="504" y="489">Rooted tapper = HCE (CRITICAL)</text>
<text class="sub" x="470" y="513">Same APK becomes a Host Card Emulator;</text>
<text class="sub" x="470" y="529">Xposed hook injects into com.android.nfc.</text>
<text class="sub" x="470" y="545">findSelectAid() reroutes any payment AID</text>
<text class="sub" x="470" y="561">to one dummy AID -&gt; relay pipeline.</text>
<text class="mono" x="470" y="591">dummy AID F0010203040506 (Google sample)</text>
<text class="mono" x="470" y="609">libnfcgate.so (NFCGate-derived)</text>

<!-- RIGHT OP 4 -->
<rect class="op" x="460" y="635" width="395" height="155"/>
<circle class="badgeR" cx="480" cy="655" r="14"/>
<text class="badgeText" x="480" y="659">P</text>
<text class="label" x="504" y="659">POS / ATM cash-out</text>
<text class="sub" x="470" y="683">Tapper held to a real terminal; relayed</text>
<text class="sub" x="470" y="699">card is card-present from an implausible</text>
<text class="sub" x="470" y="715">geo. PIN harvest unlocks ATM + chip-PIN.</text>
<text class="sub" x="470" y="731">Issuer impossible-travel = real backstop.</text>
<text class="mono" x="470" y="761">SELECT PPSE 2PAY.SYS.DDF01</text>
<text class="mono" x="470" y="779">contactless cap bypassed via PIN</text>

<!-- RIGHT OP 5 -->
<rect class="op" x="460" y="805" width="395" height="155"/>
<circle class="badgeR" cx="480" cy="825" r="14"/>
<text class="badgeText" x="480" y="829">X</text>
<text class="label" x="504" y="829">Telegram exfil channel</text>
<text class="sub" x="470" y="853">PIN, password and OTPs pushed to the</text>
<text class="sub" x="470" y="869">attacker's private Telegram bot in</text>
<text class="sub" x="470" y="885">real time, alongside bank + victim IP.</text>
<text class="sub" x="470" y="901">Lead only from a banking-categorised app.</text>
<text class="mono" x="470" y="931">api.telegram.org/bot.../sendMessage</text>
<text class="mono" x="470" y="949">plaintext fields</text>

<!-- RIGHT OP 6 -->
<rect class="op" x="460" y="975" width="395" height="155"/>
<circle class="badgeR" cx="480" cy="995" r="14"/>
<text class="badgeText" x="480" y="999">M</text>
<text class="label" x="504" y="999">NFCMultiPay variant (BR)</text>
<text class="sub" x="470" y="1023">Pure Java, no root, two phones + broker.</text>
<text class="sub" x="470" y="1039">v1 REST /api/nfc/poll -&gt; v2 MQTT 1883.</text>
<text class="sub" x="470" y="1055">Broker host AES/CBC + XOR (T1521.001).</text>
<text class="sub" x="470" y="1071">Retained card_ready persists PIN+PAN4.</text>
<text class="mono" x="470" y="1101">nfc/relay/&lt;pin&gt;/apdu_request|response</text>
<text class="mono" x="470" y="1119">/api/nfc/check-pin, /poll, /publish</text>

<!-- LEFT vertical flow arrows -->
<path class="arrow" d="M227,255 L227,270" marker-end="url(#ah)"/>
<path class="arrow" d="M227,405 L227,420" marker-end="url(#ah)"/>
<path class="arrow" d="M227,555 L227,570" marker-end="url(#ah)"/>
<path class="arrow" d="M227,705 L227,720" marker-end="url(#ah)"/>
<path class="arrow" d="M227,855 L227,870" marker-end="url(#ah)"/>
<path class="arrow" d="M227,1005 L227,1020" marker-end="url(#ah)"/>

<!-- RIGHT internal flow: broker -> tapper -> POS -->
<path class="arrowR" d="M657,450 L657,465" marker-end="url(#ah)"/>
<path class="arrowR" d="M657,620 L657,635" marker-end="url(#ah)"/>

<!-- CROSS-LANE relay: victim card tap (stage4) -> rooted tapper (op3) -->
<path class="arrowX" d="M425,610 L460,540" marker-start="url(#ah)" marker-end="url(#ah)"/>
<!-- CROSS-LANE: C2 template (op1) -> Kiosk lock (stage3) is long; use op1 -> stage2 install region -->
<path class="arrowX" d="M460,235 L425,360" marker-end="url(#ah)"/>
<!-- CROSS-LANE: PIN capture (stage5) -> Telegram exfil (op5) -->
<path class="arrowX" d="M425,800 L460,860" marker-end="url(#ah)"/>

<rect class="footer" x="20" y="1175" width="840" height="95"/>
<text class="footerH" x="40" y="1203">Detection anchors (transport rotates, behaviour persists)</text>
<text class="footerT" x="40" y="1226">HCE card-emulation by a non-wallet sideloaded app; Xposed hook on findSelectAid() with one dummy AID; Kiosk lock + PIN overlay;</text>
<text class="footerT" x="40" y="1246">SMS/OTP read+forward; relay egress: raw-TCP/Protobuf, REST /api/nfc/*, MQTT 1883 retained card_ready. Issuer-side impossible-travel</text>
<text class="footerT" x="40" y="1264">and device-binding catch the cash-out even when the endpoint is clean. PIN harvest is the force-multiplier past contactless limits.</text>
</svg>
