<svg xmlns="http://www.w3.org/2000/svg" viewBox="0 0 880 1280" role="img" aria-labelledby="t d">
<title id="t">KongTuke/Woodgnat Backdoor.Mistic kill chain</title>
<desc id="d">Two-lane diagram. Left lane (victim): ClickFix lure, paste-and-run PowerShell, remote MSI, signed MpExtMs.exe side-loading version.dll and EndpointDlp.dll (Backdoor.Mistic, critical), in-memory backdoor with BOF loading and self-delete kill switch (critical), recon plus fake-login credential theft, and Run-key persistence handed off to ransomware affiliates (critical). Right lane (infrastructure): Woodgnat WordPress TDS, delivery domains, Mistic C2 (critical), ModeloRAT WinPython DGA C2, LOLBin toolset, and ransomware buyers (critical). Detection anchors: signed binary loading a system-named DLL from a non-system path, explorer-spawned PowerShell fetching an MSI, and Run-key masquerade launching pythonw.exe.</desc>
<defs>
<style><![CDATA[
.bg { fill: #ffffff; }
.head { font: 700 18px sans-serif; fill: #0a0a0a; }
.meta { font: 11px sans-serif; fill: #404040; }
.laneL { fill: #f3f7fb; stroke: #5a7da6; stroke-width: 1.2; }
.laneR { fill: #faf3ee; stroke: #b07a3a; stroke-width: 1.2; }
.laneLabelL { font: 700 12px sans-serif; fill: #2a4a6a; }
.laneLabelR { font: 700 12px sans-serif; fill: #8a5520; }
.stage { fill: #ffffff; stroke: #5a7da6; stroke-width: 1.1; }
.stageK { fill: #fdecec; stroke: #b03030; stroke-width: 1.4; }
.op { fill: #ffffff; stroke: #b07a3a; stroke-width: 1.1; }
.opK { fill: #fdecec; stroke: #b03030; stroke-width: 1.4; }
.band { fill: #f7f1eb; stroke: #c08555; stroke-width: 1.2; }
.badge { fill: #5a7da6; }
.badgeK { fill: #b03030; }
.badgeR { fill: #b07a3a; }
.badgeText { font: 700 12px sans-serif; fill: #ffffff; text-anchor: middle; }
.label { font: 700 13px sans-serif; fill: #0a0a0a; }
.sub { font: 11px sans-serif; fill: #303030; }
.mono { font: 10.5px ui-monospace, "SFMono-Regular", Consolas, monospace; fill: #303030; }
.footer { fill: #f6f6f4; stroke: #888; stroke-width: 1; }
.footerH { font: 700 12px sans-serif; fill: #1a1a1a; }
.footerT { font: 10.5px sans-serif; fill: #1a1a1a; }
.arrow { stroke: #2a4a6a; stroke-width: 1.6; fill: none; }
.arrowX { stroke: #7a3a7a; stroke-width: 1.6; fill: none; stroke-dasharray: 5 3; }
.arrowR { stroke: #8a5520; stroke-width: 1.6; fill: none; }
.acc-ransomware { fill: #b03030; }
.acc-espionage { fill: #2a4a6a; }
.acc-supply-chain { fill: #b07a3a; }
.acc-identity-cloud { fill: #6a4ca6; }
.acc-ot-ics { fill: #2f8f4e; }
.acc-edge-network { fill: #1d7a8c; }
.acc-mobile { fill: #c2569a; }
.acc-crypto-defi { fill: #d08a1f; }
.acc-malware-re { fill: #556070; }
.acc-other { fill: #6a6a6a; }
.accLabel { font: 700 11px sans-serif; fill: #ffffff; }
@media (prefers-color-scheme: dark) {
  .bg { fill: #0d1117; }
  .head, .label, .footerH { fill: #f0f0f0; }
  .meta, .sub, .footerT { fill: #c8c8c8; }
  .mono { fill: #c0d0e0; }
  .laneL { fill: #182230; stroke: #7aa6d0; }
  .laneR { fill: #2a2418; stroke: #d09a5a; }
  .laneLabelL { fill: #a8c6e2; }
  .laneLabelR { fill: #e2bf8a; }
  .stage { fill: #1c2530; stroke: #7aa6d0; }
  .stageK { fill: #3a1818; stroke: #e06060; }
  .op { fill: #2a2418; stroke: #d09a5a; }
  .opK { fill: #3a1818; stroke: #e06060; }
  .band { fill: #2a2418; stroke: #d09a5a; }
  .badge { fill: #7aa6d0; }
  .badgeK { fill: #e06060; }
  .badgeR { fill: #d09a5a; }
  .badgeText { fill: #0d1117; }
  .footer { fill: #1a1d22; stroke: #555; }
  .arrow { stroke: #a8c6e2; }
  .arrowX { stroke: #c898d0; }
  .arrowR { stroke: #e2bf8a; }
}
]]></style>
<marker id="ah" viewBox="0 0 10 10" refX="9" refY="5" markerWidth="7" markerHeight="7" orient="auto">
  <path d="M0,0 L10,5 L0,10 z" fill="currentColor"/>
</marker>
</defs>
<rect class="bg" x="0" y="0" width="880" height="1280"/>
<rect class="acc-malware-re" x="0" y="0" width="880" height="8"/>
<text class="head" x="20" y="36">KongTuke / Woodgnat: Backdoor.Mistic (MTLBackdoor)</text>
<text class="meta" x="20" y="58">Vendor: Symantec / Zscaler / THN - Date: 2026-06-24/25 - Cluster: Woodgnat (KongTuke) - Day 71</text>

<rect class="laneL" x="20" y="85" width="410" height="1080"/>
<rect class="laneR" x="450" y="85" width="410" height="1080"/>
<text class="laneLabelL" x="30" y="103">VICTIM ENDPOINT / AD</text>
<text class="laneLabelR" x="460" y="103">WOODGNAT IAB INFRASTRUCTURE</text>

<rect class="stage" x="30" y="120" width="395" height="135"/>
<circle class="badge" cx="50" cy="140" r="14"/><text class="badgeText" x="50" y="144">1</text>
<text class="label" x="76" y="144">Lure delivered (TDS)</text>
<text class="sub" x="40" y="168">Compromised WordPress serves ClickFix /</text>
<text class="sub" x="40" y="184">FileFix / CrashFix social-engineering lure</text>
<text class="sub" x="40" y="200">User profiled, then coached to run a command</text>
<text class="mono" x="40" y="226">T1189 Drive-by - T1566 Phishing</text>
<text class="mono" x="40" y="244">lure: human-check[.]top / fake CAPTCHA</text>

<rect class="stage" x="30" y="270" width="395" height="135"/>
<circle class="badge" cx="50" cy="290" r="14"/><text class="badgeText" x="50" y="294">2</text>
<text class="label" x="76" y="294">Paste-and-run</text>
<text class="sub" x="40" y="318">Victim pastes one-liner into Run dialog or</text>
<text class="sub" x="40" y="334">Explorer address bar; explorer.exe is parent</text>
<text class="sub" x="40" y="350">Also via fake IT-support Microsoft Teams chat</text>
<text class="mono" x="40" y="376">T1204.004 Paste - T1059.001 PowerShell</text>
<text class="mono" x="40" y="394">parent: explorer.exe -> powershell.exe</text>

<rect class="stage" x="30" y="420" width="395" height="135"/>
<circle class="badge" cx="50" cy="440" r="14"/><text class="badgeText" x="50" y="444">3</text>
<text class="label" x="76" y="444">Remote MSI staged</text>
<text class="sub" x="40" y="468">curl / certutil pull an MSI, msiexec runs it</text>
<text class="sub" x="40" y="484">MSI drops the signed sideload host + DLLs</text>
<text class="sub" x="40" y="500">.NET fake-login stealer (f.dll) also dropped</text>
<text class="mono" x="40" y="526">T1105 Transfer - T1218.007 Msiexec</text>
<text class="mono" x="40" y="544">hxxp://thomphon[.]com/update.msi</text>

<rect class="stageK" x="30" y="570" width="395" height="135"/>
<circle class="badgeK" cx="50" cy="590" r="14"/><text class="badgeText" x="50" y="594">4</text>
<text class="label" x="76" y="594">Signed DLL side-load</text>
<text class="sub" x="40" y="618">Legit MpExtMs.exe loads malicious version.dll</text>
<text class="sub" x="40" y="634">version.dll hooks GetModuleFileNameW +</text>
<text class="sub" x="40" y="650">LoadLibraryW to load EndpointDlp.dll</text>
<text class="mono" x="40" y="676">T1574.002 Sideload - T1036.005 Masquerade</text>
<text class="mono" x="40" y="694">signed host + system-named DLL, non-System32</text>

<rect class="stageK" x="30" y="720" width="395" height="135"/>
<circle class="badgeK" cx="50" cy="740" r="14"/><text class="badgeText" x="50" y="744">5</text>
<text class="label" x="76" y="744">Mistic in-memory</text>
<text class="sub" x="40" y="768">EndpointDlp.dll = Backdoor.Mistic; runs C2</text>
<text class="sub" x="40" y="784">payloads in memory, loads BOFs, no disk file</text>
<text class="sub" x="40" y="800">Self-delete kill switch for low-visibility access</text>
<text class="mono" x="40" y="826">T1620 Reflective - T1071.001 Web C2</text>
<text class="mono" x="40" y="844">authorized-logins[.]net - 142.93.242.144</text>

<rect class="stage" x="30" y="870" width="395" height="135"/>
<circle class="badge" cx="50" cy="890" r="14"/><text class="badgeText" x="50" y="894">6</text>
<text class="label" x="76" y="894">Recon + credentials</text>
<text class="sub" x="40" y="918">net / PowerShell AD enum, Kerberoasting</text>
<text class="sub" x="40" y="934">Fake lock-screen login harvests credentials</text>
<text class="sub" x="40" y="950">reg / wmic / finger LOLBins for staging</text>
<text class="mono" x="40" y="976">T1558.003 Kerberoast - T1056.002 GUI capture</text>
<text class="mono" x="40" y="994">f.dll fake login - net.exe / nltest recon</text>

<rect class="stageK" x="30" y="1020" width="395" height="135"/>
<circle class="badgeK" cx="50" cy="1040" r="14"/><text class="badgeText" x="50" y="1044">7</text>
<text class="label" x="76" y="1044">Persist + sell access</text>
<text class="sub" x="40" y="1068">HKCU Run key masquerades AnyDesk/Splashtop</text>
<text class="sub" x="40" y="1084">ModeloRAT (WinPython/pythonw) durable access</text>
<text class="sub" x="40" y="1100">Foothold sold to ransomware affiliate (handoff)</text>
<text class="mono" x="40" y="1126">T1547.001 Run key - T1219 Remote-access RAT</text>
<text class="mono" x="40" y="1144">buyers: Qilin / Akira / Rhysida / Black Basta</text>

<rect class="op" x="460" y="125" width="395" height="155"/>
<circle class="badgeR" cx="480" cy="145" r="14"/><text class="badgeText" x="480" y="149">A</text>
<text class="label" x="506" y="149">Woodgnat TDS</text>
<text class="sub" x="470" y="173">Traffic distribution system on compromised</text>
<text class="sub" x="470" y="189">WordPress; injected JS profiles visitors</text>
<text class="sub" x="470" y="205">Aliases: 404 TDS, TAG-124, LandUpdate808,</text>
<text class="sub" x="470" y="221">Chaya_002; active since at least May 2024</text>
<text class="mono" x="470" y="248">NexShield fake uBlock Chrome extension</text>
<text class="mono" x="470" y="266">lures rotate: ClickFix -> FileFix -> CrashFix</text>

<rect class="op" x="460" y="295" width="395" height="155"/>
<circle class="badgeR" cx="480" cy="315" r="14"/><text class="badgeText" x="480" y="319">B</text>
<text class="label" x="506" y="319">Delivery infra</text>
<text class="sub" x="470" y="343">MSI + loader hosts, typosquat / update themes</text>
<text class="sub" x="470" y="359">MintsLoader / D3F@ck commodity loaders stage</text>
<text class="sub" x="470" y="375">Finger.exe abused to pull obfuscated payloads</text>
<text class="sub" x="470" y="391">DNS used as a signaling/staging channel</text>
<text class="mono" x="470" y="418">thomphon[.]com - updater-worelos[.]com</text>
<text class="mono" x="470" y="436">sql-updater-service[.]com - rotoa-upda-lo</text>

<rect class="opK" x="460" y="465" width="395" height="155"/>
<circle class="badgeK" cx="480" cy="485" r="14"/><text class="badgeText" x="480" y="489">C</text>
<text class="label" x="506" y="489">Mistic C2</text>
<text class="sub" x="470" y="513">In-memory tasking; BOF modules extend it</text>
<text class="sub" x="470" y="529">Blends with Microsoft endpoint-DLP naming</text>
<text class="sub" x="470" y="545">Subdomains: mail / php / sss / defs / ftps</text>
<text class="sub" x="470" y="561">IPs rotate; re-validate before blocking</text>
<text class="mono" x="470" y="588">authorized-logins[.]net - upscale-kolo[.]com</text>
<text class="mono" x="470" y="606">144.31.53.78 - 198.13.159.44 - 199.91.221.42</text>

<rect class="op" x="460" y="635" width="395" height="155"/>
<circle class="badgeR" cx="480" cy="655" r="14"/><text class="badgeText" x="480" y="659">D</text>
<text class="label" x="506" y="659">ModeloRAT C2</text>
<text class="sub" x="470" y="683">Python RAT in a portable WinPython package</text>
<text class="sub" x="470" y="699">RC4-encrypted C2, multiple failover paths</text>
<text class="sub" x="470" y="715">Non-domain hosts get a weekly-rotating DGA</text>
<text class="sub" x="470" y="731">Run via signed pythonw.exe to blend in</text>
<text class="mono" x="470" y="758">WPy64-31401 - HKCU CurrentVersion Run</text>
<text class="mono" x="470" y="776">DGA: b6w9m2z5x8q1v3k[.]top - cj06y9v4xab</text>

<rect class="op" x="460" y="805" width="395" height="155"/>
<circle class="badgeR" cx="480" cy="825" r="14"/><text class="badgeText" x="480" y="829">E</text>
<text class="label" x="506" y="829">LOLBin toolset</text>
<text class="sub" x="470" y="853">Living-off-the-land + dual-use tools onboard</text>
<text class="sub" x="470" y="869">Recon, staging, exfil over HTTP with curl</text>
<text class="sub" x="470" y="885">Node.exe as script host chaining PowerShell</text>
<text class="sub" x="470" y="901">GateKeeper .NET anti-analysis / fingerprinting</text>
<text class="mono" x="470" y="928">curl - reg - net - wmic - certutil - finger</text>
<text class="mono" x="470" y="946">VM / analysis-tool checks before payload</text>

<rect class="opK" x="460" y="975" width="395" height="155"/>
<circle class="badgeK" cx="480" cy="995" r="14"/><text class="badgeText" x="480" y="999">F</text>
<text class="label" x="506" y="999">Ransomware buyers</text>
<text class="sub" x="470" y="1023">IAB sells durable access, not final payload</text>
<text class="sub" x="470" y="1039">ModeloRAT access observed feeding Qilin</text>
<text class="sub" x="470" y="1055">Publicly linked to multiple RaaS affiliates</text>
<text class="sub" x="470" y="1071">Access handoff can be near-instant post-recon</text>
<text class="mono" x="470" y="1098">Qilin - Interlock - Rhysida - Akira - 8Base</text>
<text class="mono" x="470" y="1116">Black Basta - opportunistic cross-sector</text>

<path class="arrow" d="M227,255 L227,270" marker-end="url(#ah)" color="#2a4a6a"/>
<path class="arrow" d="M227,405 L227,420" marker-end="url(#ah)" color="#2a4a6a"/>
<path class="arrow" d="M227,555 L227,570" marker-end="url(#ah)" color="#2a4a6a"/>
<path class="arrow" d="M227,705 L227,720" marker-end="url(#ah)" color="#2a4a6a"/>
<path class="arrow" d="M227,855 L227,870" marker-end="url(#ah)" color="#2a4a6a"/>
<path class="arrow" d="M227,1005 L227,1020" marker-end="url(#ah)" color="#2a4a6a"/>
<path class="arrowX" d="M460,202 L425,187" marker-end="url(#ah)" color="#7a3a7a"/>
<path class="arrowX" d="M460,372 L425,487" marker-end="url(#ah)" color="#7a3a7a"/>
<path class="arrowX" d="M460,542 L425,637" marker-end="url(#ah)" color="#7a3a7a"/>
<path class="arrowX" d="M460,1052 L425,1087" marker-end="url(#ah)" color="#7a3a7a"/>

<rect class="footer" x="20" y="1175" width="840" height="95"/>
<text class="footerH" x="32" y="1200">Detection anchors</text>
<text class="footerT" x="32" y="1220">1) Signed binary (MpExtMs.exe) loading a system-named DLL (version.dll / EndpointDlp.dll) from a non-System32 path.</text>
<text class="footerT" x="32" y="1238">2) explorer.exe-spawned PowerShell/curl/certutil fetching a remote .msi (ClickFix paste-and-run).</text>
<text class="footerT" x="32" y="1256">3) HKCU Run key named AnyDesk/Splashtop/Comms but launching portable pythonw.exe (ModeloRAT). Author: Jarmi.</text>
</svg>
