<svg xmlns="http://www.w3.org/2000/svg" viewBox="0 0 880 1280" role="img" aria-labelledby="t d">
<title id="t">AWS console AiTM (input_24 kit) kill chain</title>
<desc id="d">Two-lane diagram. Left lane: a targeted engineer receives a SendGrid or Nimbu delivered AWS support lure, clicks an input_24 gated link, the AWS console clone renders, credentials are submitted to the api login endpoint, the MFA challenge is captured, the session is relayed to a successful ConsoleLogin, and IAM persistence is expected. Right lane: operator infrastructure of NICENIC domain registration behind Cloudflare, the gating server, the api login and api auth relay backend talking to the real AWS console, ESP abuse, and the input_24 PoisonSeeds kit lineage targeting fewer than fifty US engineers. Detection anchors are look-alike domain resolution, the input_24 and api relay fingerprints, and an off-baseline ConsoleLogin.</desc>
<defs>
<style><![CDATA[
.bg { fill: #ffffff; }
.head { font: 700 18px sans-serif; fill: #0a0a0a; }
.meta { font: 11px sans-serif; fill: #404040; }
.laneL { fill: #f3f7fb; stroke: #5a7da6; stroke-width: 1.2; }
.laneR { fill: #faf3ee; stroke: #b07a3a; stroke-width: 1.2; }
.laneLabelL { font: 700 12px sans-serif; fill: #2a4a6a; }
.laneLabelR { font: 700 12px sans-serif; fill: #8a5520; }
.stage { fill: #ffffff; stroke: #5a7da6; stroke-width: 1.1; }
.stageK { fill: #fdecec; stroke: #b03030; stroke-width: 1.4; }
.op { fill: #ffffff; stroke: #b07a3a; stroke-width: 1.1; }
.opK { fill: #fdecec; stroke: #b03030; stroke-width: 1.4; }
.band { fill: #f7f1eb; stroke: #c08555; stroke-width: 1.2; }
.badge { fill: #5a7da6; }
.badgeK { fill: #b03030; }
.badgeR { fill: #b07a3a; }
.badgeText { font: 700 12px sans-serif; fill: #ffffff; text-anchor: middle; }
.label { font: 700 13px sans-serif; fill: #0a0a0a; }
.sub { font: 11px sans-serif; fill: #303030; }
.mono { font: 10.5px ui-monospace, "SFMono-Regular", Consolas, monospace; fill: #303030; }
.footer { fill: #f6f6f4; stroke: #888; stroke-width: 1; }
.footerH { font: 700 12px sans-serif; fill: #1a1a1a; }
.footerT { font: 10.5px sans-serif; fill: #1a1a1a; }
.arrow { stroke: #2a4a6a; stroke-width: 1.6; fill: none; }
.arrowX { stroke: #7a3a7a; stroke-width: 1.6; fill: none; stroke-dasharray: 5 3; }
.arrowR { stroke: #8a5520; stroke-width: 1.6; fill: none; }
.acc-ransomware { fill: #b03030; }
.acc-espionage { fill: #2a4a6a; }
.acc-supply-chain { fill: #b07a3a; }
.acc-identity-cloud { fill: #6a4ca6; }
.acc-ot-ics { fill: #2f8f4e; }
.acc-edge-network { fill: #1d7a8c; }
.acc-mobile { fill: #c2569a; }
.acc-crypto-defi { fill: #d08a1f; }
.acc-malware-re { fill: #556070; }
.acc-other { fill: #6a6a6a; }
.accLabel { font: 700 11px sans-serif; fill: #ffffff; }
@media (prefers-color-scheme: dark) {
  .bg { fill: #0d1117; }
  .head, .label, .footerH { fill: #f0f0f0; }
  .meta, .sub, .footerT { fill: #c8c8c8; }
  .mono { fill: #c0d0e0; }
  .laneL { fill: #182230; stroke: #7aa6d0; }
  .laneR { fill: #2a2418; stroke: #d09a5a; }
  .laneLabelL { fill: #a8c6e2; }
  .laneLabelR { fill: #e2bf8a; }
  .stage { fill: #1c2530; stroke: #7aa6d0; }
  .stageK { fill: #3a1818; stroke: #e06060; }
  .op { fill: #2a2418; stroke: #d09a5a; }
  .opK { fill: #3a1818; stroke: #e06060; }
  .band { fill: #2a2418; stroke: #d09a5a; }
  .badge { fill: #7aa6d0; }
  .badgeK { fill: #e06060; }
  .badgeR { fill: #d09a5a; }
  .badgeText { fill: #0d1117; }
  .footer { fill: #1a1d22; stroke: #555; }
  .arrow { stroke: #a8c6e2; }
  .arrowX { stroke: #c898d0; }
  .arrowR { stroke: #e2bf8a; }
}
]]></style>
<marker id="ah" viewBox="0 0 10 10" refX="9" refY="5" markerWidth="7" markerHeight="7" orient="auto">
  <path d="M0,0 L10,5 L0,10 z" fill="currentColor"/>
</marker>
</defs>
<rect class="bg" x="0" y="0" width="880" height="1280"/>
  <rect class="acc-identity-cloud" x="0" y="0" width="880" height="8"/>
<text class="head" x="20" y="36">AWS Console AiTM - input_24 phishing kit</text>
<text class="meta" x="20" y="58">Vendor: Datadog Security Labs - Date: 2026-06-24 - Cluster: input_24 kit (PoisonSeeds-adjacent) - Day 65</text>

<rect class="laneL" x="20" y="85" width="410" height="1080"/>
<rect class="laneR" x="450" y="85" width="410" height="1080"/>
<text class="laneLabelL" x="30" y="105">VICTIM - targeted engineer (browser + AWS console)</text>
<text class="laneLabelR" x="460" y="105">OPERATOR - kit + infrastructure</text>

<rect class="stage" x="30" y="120" width="395" height="135"/>
<circle class="badge" cx="50" cy="140" r="14"/>
<text class="badgeText" x="50" y="144">1</text>
<text class="label" x="75" y="144">AWS-Support lure delivered</text>
<text class="sub" x="40" y="168">Email via legitimate ESP (SendGrid / Nimbu)</text>
<text class="sub" x="40" y="184">Fabricated bandwidth-throttling ticket</text>
<text class="sub" x="40" y="200">Per-recipient link; passes SPF/DKIM/DMARC</text>
<text class="mono" x="40" y="226">T1566.002 T1656  aws.us-west-login[.]com</text>
<text class="mono" x="40" y="244">delivery: SendGrid + Nimbu</text>

<rect class="stage" x="30" y="270" width="395" height="135"/>
<circle class="badge" cx="50" cy="290" r="14"/>
<text class="badgeText" x="50" y="294">2</text>
<text class="label" x="75" y="294">Click gated link (input_24)</text>
<text class="sub" x="40" y="318">URL carries encrypted base64 email blob</text>
<text class="sub" x="40" y="334">POST /api/check -> sets validEmail cookie</text>
<text class="sub" x="40" y="350">/api/me returns victim email for gating</text>
<text class="mono" x="40" y="376">T1204.001 T1480  input_24= ...</text>
<text class="mono" x="40" y="394">cookie: validEmail</text>

<rect class="stage" x="30" y="420" width="395" height="135"/>
<circle class="badge" cx="50" cy="440" r="14"/>
<text class="badgeText" x="50" y="444">3</text>
<text class="label" x="75" y="444">AWS console clone renders</text>
<text class="sub" x="40" y="468">Renders only for a valid target email</text>
<text class="sub" x="40" y="484">Non-targets / sandboxes see a blank page</text>
<text class="sub" x="40" y="500">React SPA; single JS harvesting file</text>
<text class="mono" x="40" y="526">T1480 T1027  "Amazon Web Services Sign-In"</text>
<text class="mono" x="40" y="544">gate: n||!e ? null</text>

<rect class="stageK" x="30" y="570" width="395" height="135"/>
<circle class="badgeK" cx="50" cy="590" r="14"/>
<text class="badgeText" x="50" y="594">4</text>
<text class="label" x="75" y="594">Submit console credentials</text>
<text class="sub" x="40" y="618">Root or IAM form -> POST /api/login</text>
<text class="sub" x="40" y="634">Response type picks the MFA route</text>
<text class="sub" x="40" y="650">isRootUser flag distinguishes account type</text>
<text class="mono" x="40" y="676">T1557 T1111  /api/login {username,password}</text>
<text class="mono" x="40" y="694">route: /email | /sms | /gauth</text>

<rect class="stageK" x="30" y="720" width="395" height="135"/>
<circle class="badgeK" cx="50" cy="740" r="14"/>
<text class="badgeText" x="50" y="744">5</text>
<text class="label" x="75" y="744">MFA challenge captured + relayed</text>
<text class="sub" x="40" y="768">Variant copy matches real AWS challenge</text>
<text class="sub" x="40" y="784">Code -> POST /api/auth -> real console</text>
<text class="sub" x="40" y="800">Live relay: server knows next AWS route</text>
<text class="mono" x="40" y="826">T1111 T1539  /api/auth {code}</text>
<text class="mono" x="40" y="844">factors: email / sms / TOTP</text>

<rect class="stage" x="30" y="870" width="395" height="135"/>
<circle class="badge" cx="50" cy="890" r="14"/>
<text class="badgeText" x="50" y="894">6</text>
<text class="label" x="75" y="894">Session replayed - ConsoleLogin</text>
<text class="sub" x="40" y="918">CloudTrail ConsoleLogin = Success</text>
<text class="sub" x="40" y="934">MFA satisfied via relay; login looks normal</text>
<text class="sub" x="40" y="950">Anchor: source ASN off identity baseline</text>
<text class="mono" x="40" y="976">T1078.004 T1550.004  signin.amazonaws.com</text>
<text class="mono" x="40" y="994">detect: DNS hit -> ConsoleLogin join</text>

<rect class="stage" x="30" y="1020" width="395" height="135"/>
<circle class="badge" cx="50" cy="1040" r="14"/>
<text class="badgeText" x="50" y="1044">7</text>
<text class="label" x="75" y="1044">IAM persistence (expected)</text>
<text class="sub" x="40" y="1068">New access key / user / login profile</text>
<text class="sub" x="40" y="1084">Durable access outlives browser session</text>
<text class="sub" x="40" y="1100">Then data-plane exfil from new key</text>
<text class="mono" x="40" y="1126">T1098.001 T1136.003  CreateAccessKey</text>
<text class="mono" x="40" y="1144">CreateUser / AttachUserPolicy</text>

<rect class="op" x="460" y="125" width="395" height="155"/>
<circle class="badgeR" cx="480" cy="145" r="14"/>
<text class="badgeText" x="480" y="149">A</text>
<text class="label" x="505" y="149">Domain registration + fronting</text>
<text class="sub" x="470" y="173">Six look-alikes, 2026-06-16..18 window</text>
<text class="sub" x="470" y="189">Registrar: NICENIC INTERNATIONAL GROUP</text>
<text class="sub" x="470" y="205">Cloudflare-fronted; AWS + SendGrid twins</text>
<text class="sub" x="470" y="221">us-east-prod vs us-west-prod naming</text>
<text class="mono" x="470" y="248">T1583.001 T1583.006  loginportal-aws[.]com</text>
<text class="mono" x="470" y="266">switch-sglogin[.]com</text>

<rect class="op" x="460" y="295" width="395" height="155"/>
<circle class="badgeR" cx="480" cy="315" r="14"/>
<text class="badgeText" x="480" y="319">B</text>
<text class="label" x="505" y="319">Gating server</text>
<text class="sub" x="470" y="343">/api/check decrypts input_24 blob</text>
<text class="sub" x="470" y="359">Sets validEmail cookie (plaintext email)</text>
<text class="sub" x="470" y="375">/api/me returns email; gate render</text>
<text class="sub" x="470" y="391">Blocks sandboxes / researchers</text>
<text class="mono" x="470" y="418">T1480 T1027  POST /api/check</text>
<text class="mono" x="470" y="436">GET /api/me -> {email}</text>

<rect class="opK" x="460" y="465" width="395" height="155"/>
<circle class="badgeK" cx="480" cy="485" r="14"/>
<text class="badgeText" x="480" y="489">C</text>
<text class="label" x="505" y="489">Relay backend -> real AWS</text>
<text class="sub" x="470" y="513">/api/login forwards creds to console</text>
<text class="sub" x="470" y="529">/api/auth forwards live MFA code</text>
<text class="sub" x="470" y="545">Server returns next AWS route (relay tell)</text>
<text class="sub" x="470" y="561">Captures email / SMS / TOTP factors</text>
<text class="mono" x="470" y="588">T1557 T1111 T1539  /api/login /api/auth</text>
<text class="mono" x="470" y="606">-> signin.aws.amazon.com</text>

<rect class="op" x="460" y="635" width="395" height="155"/>
<circle class="badgeR" cx="480" cy="655" r="14"/>
<text class="badgeText" x="480" y="659">D</text>
<text class="label" x="505" y="659">ESP abuse for delivery</text>
<text class="sub" x="470" y="683">SendGrid + Nimbu (legitimate senders)</text>
<text class="sub" x="470" y="699">Passes SPF/DKIM/DMARC by design</text>
<text class="sub" x="470" y="715">Sender auth = deliverability, not trust</text>
<text class="sub" x="470" y="731">Discriminator is the URL host, not sender</text>
<text class="mono" x="470" y="758">T1585.002  sendgrid.us-west-prod[.]com</text>
<text class="mono" x="470" y="776">VT 2026-06-19 validation .bat</text>

<rect class="op" x="460" y="805" width="395" height="155"/>
<circle class="badgeR" cx="480" cy="825" r="14"/>
<text class="badgeText" x="480" y="829">E</text>
<text class="label" x="505" y="829">Kit lineage (input_24 / PoisonSeeds)</text>
<text class="sub" x="470" y="853">input_24 gating active since 2025-07</text>
<text class="sub" x="470" y="869">Prior: Trezor / Ledger wallet phishing</text>
<text class="sub" x="470" y="885">Aug 2025: dashboard-salesforce[.]com</text>
<text class="sub" x="470" y="901">SendGrid SPA = PoisonSeeds (NVISO)</text>
<text class="mono" x="470" y="928">track the kit, not the domain</text>
<text class="mono" x="470" y="946">/2fa/(email|sms|ga)/:twoFactorId</text>

<rect class="op" x="460" y="975" width="395" height="155"/>
<circle class="badgeR" cx="480" cy="995" r="14"/>
<text class="badgeText" x="480" y="999">F</text>
<text class="label" x="505" y="999">Targeting</text>
<text class="sub" x="470" y="1023">Fewer than 50 curated recipients</text>
<text class="sub" x="470" y="1039">Primarily US-based individuals</text>
<text class="sub" x="470" y="1055">Software engineers + eng leadership</text>
<text class="sub" x="470" y="1071">Per-recipient encrypted email blob</text>
<text class="mono" x="470" y="1098">T1598.003  targeted, not mass phishing</text>
<text class="mono" x="470" y="1116">gate blinds URL detonation</text>

<line class="arrow" x1="227" y1="255" x2="227" y2="270" marker-end="url(#ah)"/>
<line class="arrow" x1="227" y1="405" x2="227" y2="420" marker-end="url(#ah)"/>
<line class="arrow" x1="227" y1="555" x2="227" y2="570" marker-end="url(#ah)"/>
<line class="arrow" x1="227" y1="705" x2="227" y2="720" marker-end="url(#ah)"/>
<line class="arrow" x1="227" y1="855" x2="227" y2="870" marker-end="url(#ah)"/>
<line class="arrow" x1="227" y1="1005" x2="227" y2="1020" marker-end="url(#ah)"/>

<line class="arrowX" x1="460" y1="372" x2="425" y2="440" marker-end="url(#ah)"/>
<line class="arrowX" x1="460" y1="560" x2="425" y2="760" marker-end="url(#ah)"/>

<rect class="footer" x="20" y="1175" width="840" height="95"/>
<text class="footerH" x="35" y="1200">Detection anchors (survive domain rotation)</text>
<text class="footerT" x="35" y="1222">1) DNS/TLS to look-alike domains  2) request fingerprint input_24= and /api/check | /api/auth</text>
<text class="footerT" x="35" y="1240">3) AWS ConsoleLogin = Success from off-baseline source ASN within minutes of the domain hit</text>
<text class="footerT" x="35" y="1258">MFA is not a legitimacy oracle - AiTM relays the live factor. Enforce FIDO2 / passkeys. No CVE; no kev.md.</text>
</svg>
