<svg xmlns="http://www.w3.org/2000/svg" viewBox="0 0 880 1280" role="img" aria-labelledby="t d">
<title id="t">UAT-7810 LapDogs ORB kill chain</title>
<desc id="d">Two-lane diagram. Left lane, the victim relay node: an internet-facing Ruckus or SOHO edge device is exploited with a known n-day, a shell loader fetches DOGLEASH from a VPS on ports 8088 or 2222, the loader opens an iptables INPUT ACCEPT for the passive backdoor port, DOGLEASH listens and executes commands, LONGLEASH adds proxy relay over an encrypted TLS channel on port 99, and the node joins the ORB fabric used by secondary APTs. Right lane, the operator: UAT-7810 develops the ff-agent codebase, acquires four VPS servers, stages multi-architecture payloads, stands up a self-signed TLS relay with subject CN=exploit, deploys the JARLEASH Java administrator, and iterates with the LEASHTEST MIPS probe. Detection anchors: raw-IP fetch on 8088/2222, iptables inbound-allow plus a new listener, outbound TLS on port 99, ff-agent and iot-test strings, a Chrome 122 decoy User-Agent from a Linux router, and the CN=exploit certificate.</desc>
<defs>
<style><![CDATA[
.bg { fill: #ffffff; }
.head { font: 700 18px sans-serif; fill: #0a0a0a; }
.meta { font: 11px sans-serif; fill: #404040; }
.laneL { fill: #f3f7fb; stroke: #5a7da6; stroke-width: 1.2; }
.laneR { fill: #faf3ee; stroke: #b07a3a; stroke-width: 1.2; }
.laneLabelL { font: 700 12px sans-serif; fill: #2a4a6a; }
.laneLabelR { font: 700 12px sans-serif; fill: #8a5520; }
.stage { fill: #ffffff; stroke: #5a7da6; stroke-width: 1.1; }
.stageK { fill: #fdecec; stroke: #b03030; stroke-width: 1.4; }
.op { fill: #ffffff; stroke: #b07a3a; stroke-width: 1.1; }
.opK { fill: #fdecec; stroke: #b03030; stroke-width: 1.4; }
.band { fill: #f7f1eb; stroke: #c08555; stroke-width: 1.2; }
.badge { fill: #5a7da6; }
.badgeK { fill: #b03030; }
.badgeR { fill: #b07a3a; }
.badgeText { font: 700 12px sans-serif; fill: #ffffff; text-anchor: middle; }
.label { font: 700 13px sans-serif; fill: #0a0a0a; }
.sub { font: 11px sans-serif; fill: #303030; }
.mono { font: 10.5px ui-monospace, "SFMono-Regular", Consolas, monospace; fill: #303030; }
.footer { fill: #f6f6f4; stroke: #888; stroke-width: 1; }
.footerH { font: 700 12px sans-serif; fill: #1a1a1a; }
.footerT { font: 10.5px sans-serif; fill: #1a1a1a; }
.arrow { stroke: #2a4a6a; stroke-width: 1.6; fill: none; }
.arrowX { stroke: #7a3a7a; stroke-width: 1.6; fill: none; stroke-dasharray: 5 3; }
.arrowR { stroke: #8a5520; stroke-width: 1.6; fill: none; }
.acc-ransomware { fill: #b03030; }
.acc-espionage { fill: #2a4a6a; }
.acc-supply-chain { fill: #b07a3a; }
.acc-identity-cloud { fill: #6a4ca6; }
.acc-ot-ics { fill: #2f8f4e; }
.acc-edge-network { fill: #1d7a8c; }
.acc-mobile { fill: #c2569a; }
.acc-crypto-defi { fill: #d08a1f; }
.acc-malware-re { fill: #556070; }
.acc-other { fill: #6a6a6a; }
.accLabel { font: 700 11px sans-serif; fill: #ffffff; }
@media (prefers-color-scheme: dark) {
  .bg { fill: #0d1117; }
  .head, .label, .footerH { fill: #f0f0f0; }
  .meta, .sub, .footerT { fill: #c8c8c8; }
  .mono { fill: #c0d0e0; }
  .laneL { fill: #182230; stroke: #7aa6d0; }
  .laneR { fill: #2a2418; stroke: #d09a5a; }
  .laneLabelL { fill: #a8c6e2; }
  .laneLabelR { fill: #e2bf8a; }
  .stage { fill: #1c2530; stroke: #7aa6d0; }
  .stageK { fill: #3a1818; stroke: #e06060; }
  .op { fill: #2a2418; stroke: #d09a5a; }
  .opK { fill: #3a1818; stroke: #e06060; }
  .band { fill: #2a2418; stroke: #d09a5a; }
  .badge { fill: #7aa6d0; }
  .badgeK { fill: #e06060; }
  .badgeR { fill: #d09a5a; }
  .badgeText { fill: #0d1117; }
  .footer { fill: #1a1d22; stroke: #555; }
  .arrow { stroke: #a8c6e2; }
  .arrowX { stroke: #c898d0; }
  .arrowR { stroke: #e2bf8a; }
}
]]></style>
<marker id="ah" viewBox="0 0 10 10" refX="9" refY="5" markerWidth="7" markerHeight="7" orient="auto">
  <path d="M0,0 L10,5 L0,10 z" fill="currentColor"/>
</marker>
</defs>
<rect class="bg" x="0" y="0" width="880" height="1280"/>
  <rect class="acc-espionage" x="0" y="0" width="880" height="8"/>
<text class="head" x="20" y="36">UAT-7810 and the LapDogs ORB - LONGLEASH / DOGLEASH / JARLEASH</text>
<text class="meta" x="20" y="58">Source: Cisco Talos - Date: 2026-07-07 - Cluster: UAT-7810 (China-nexus) - Class: espionage - Day 77</text>

<rect class="laneL" x="20" y="85" width="410" height="1080"/>
<text class="laneLabelL" x="34" y="104">VICTIM / RELAY NODE - SOHO edge device (Ruckus)</text>
<rect class="laneR" x="450" y="85" width="410" height="1080"/>
<text class="laneLabelR" x="464" y="104">OPERATOR / ORB INFRASTRUCTURE - UAT-7810</text>
<rect class="stage" x="30" y="120" width="395" height="135"/>
<circle class="badge" cx="50" cy="140" r="14"/><text class="badgeText" x="50" y="144">1</text>
<text class="label" x="76" y="144">Select edge device</text>
<text class="sub" x="42" y="168">Internet-facing Ruckus / SOHO router</text>
<text class="sub" x="42" y="184">Unpatched n-day attack surface</text>
<text class="sub" x="42" y="200">T1190 Exploit Public-Facing Application</text>
<text class="mono" x="42" y="226">CVE-2023-25717 (KEV) RCE</text>
<text class="mono" x="42" y="244">CVE-2020-22653 / 22658</text>

<rect class="stage" x="30" y="270" width="395" height="135"/>
<circle class="badge" cx="50" cy="290" r="14"/><text class="badgeText" x="50" y="294">2</text>
<text class="label" x="76" y="294">Exploit and drop loader</text>
<text class="sub" x="42" y="318">Shell script fetches DOGLEASH</text>
<text class="sub" x="42" y="334">Multi-arch: MIPS / ARM / x64</text>
<text class="sub" x="42" y="350">T1105 / T1059.004</text>
<text class="mono" x="42" y="376">GET raw-IP :8088/ :2222/</text>
<text class="mono" x="42" y="394">wget / curl / busybox</text>

<rect class="stageK" x="30" y="420" width="395" height="135"/>
<circle class="badgeK" cx="50" cy="440" r="14"/><text class="badgeText" x="50" y="444">3</text>
<text class="label" x="76" y="444">Open firewall for listener</text>
<text class="sub" x="42" y="468">iptables INPUT ACCEPT dport</text>
<text class="sub" x="42" y="484">Passive backdoor needs inbound</text>
<text class="sub" x="42" y="500">T1562.004 Disable/Modify Firewall</text>
<text class="mono" x="42" y="526">iptables -A INPUT -p tcp -j ACCEPT</text>
<text class="mono" x="42" y="544">--dport &lt;bind_port&gt;</text>

<rect class="stageK" x="30" y="570" width="395" height="135"/>
<circle class="badgeK" cx="50" cy="590" r="14"/><text class="badgeText" x="50" y="594">4</text>
<text class="label" x="76" y="594">DOGLEASH passive backdoor</text>
<text class="sub" x="42" y="618">Binds local port, waits for operator</text>
<text class="sub" x="42" y="634">cmd via /bin/sh -c; read/rename file</text>
<text class="sub" x="42" y="650">T1620 execute code in memory</text>
<text class="mono" x="42" y="676">hardcoded-password TCP decode</text>
<text class="mono" x="42" y="694">cmd codes 0x2266..0x3450</text>

<rect class="stage" x="30" y="720" width="395" height="135"/>
<circle class="badge" cx="50" cy="740" r="14"/><text class="badgeText" x="50" y="744">5</text>
<text class="label" x="76" y="744">LONGLEASH relay implant</text>
<text class="sub" x="42" y="768">ff-agent nz1.0; Boost.Asio (MIPS)</text>
<text class="sub" x="42" y="784">HTTP/DNS/SOCKS/TCP/ICMP proxy</text>
<text class="sub" x="42" y="800">T1090.003 Multi-hop Proxy / T1572</text>
<text class="mono" x="42" y="826">intermediate C2; forwards to peers</text>
<text class="mono" x="42" y="844">musl static; Nanopb protobuf</text>

<rect class="stage" x="30" y="870" width="395" height="135"/>
<circle class="badge" cx="50" cy="890" r="14"/><text class="badgeText" x="50" y="894">6</text>
<text class="label" x="76" y="894">Encrypted relay channel</text>
<text class="sub" x="42" y="918">MbedTLS / x509 PKI</text>
<text class="sub" x="42" y="934">TLS server on TCP/99</text>
<text class="sub" x="42" y="950">T1573.002 Asymmetric Cryptography</text>
<text class="mono" x="42" y="976">cert subject CN=exploit</text>
<text class="mono" x="42" y="994">Chrome/122 decoy User-Agent</text>

<rect class="stageK" x="30" y="1020" width="395" height="135"/>
<circle class="badgeK" cx="50" cy="1040" r="14"/><text class="badgeText" x="50" y="1044">7</text>
<text class="label" x="76" y="1044">Node joins ORB fabric</text>
<text class="sub" x="42" y="1068">Rented by secondary China APTs</text>
<text class="sub" x="42" y="1084">e.g. UAT-5918 (Taiwan critical infra)</text>
<text class="sub" x="42" y="1100">T1584.008 / T1070.004</text>
<text class="mono" x="42" y="1126">self-clean traces on tamper</text>
<text class="mono" x="42" y="1144">relay hides the true origin</text>
<rect class="op" x="460" y="125" width="395" height="155"/>
<circle class="badgeR" cx="480" cy="145" r="14"/><text class="badgeText" x="480" y="149">A</text>
<text class="label" x="506" y="149">Develop ff-agent codebase</text>
<text class="sub" x="472" y="173">SHORTLEASH -&gt; LONGLEASH successor</text>
<text class="sub" x="472" y="189">Nanopb protobuf, MbedTLS, musl</text>
<text class="sub" x="472" y="205">Base58 / Base64 encoding</text>
<text class="sub" x="472" y="221">T1587.001 Develop Capabilities</text>
<text class="mono" x="472" y="251">internal project nz1.0</text>
<text class="mono" x="472" y="269">shared name: ff-agent</text>

<rect class="op" x="460" y="295" width="395" height="155"/>
<circle class="badgeR" cx="480" cy="315" r="14"/><text class="badgeText" x="480" y="319">B</text>
<text class="label" x="506" y="319">Acquire VPS servers</text>
<text class="sub" x="472" y="343">Four download / relay hosts</text>
<text class="sub" x="472" y="359">Ports 8088 / 2222 / 99</text>
<text class="sub" x="472" y="375">One in Hong Kong</text>
<text class="sub" x="472" y="391">T1583.003 Acquire Infra: VPS</text>
<text class="mono" x="472" y="421">194.233.92.26  217.15.160.247</text>
<text class="mono" x="472" y="439">217.15.164.147  95.182.100.231</text>

<rect class="op" x="460" y="465" width="395" height="155"/>
<circle class="badgeR" cx="480" cy="485" r="14"/><text class="badgeText" x="480" y="489">C</text>
<text class="label" x="506" y="489">Stage multi-arch payloads</text>
<text class="sub" x="472" y="513">DOGLEASH per architecture</text>
<text class="sub" x="472" y="529">MIPS / MIPSel / ARMv7 / x64</text>
<text class="sub" x="472" y="545">Loader scripts co-hosted</text>
<text class="sub" x="472" y="561">T1608.001 Upload Malware</text>
<text class="mono" x="472" y="591">http://&lt;vps&gt;:8088/  :2222/</text>
<text class="mono" x="472" y="609">arch-specific ClamAV sigs</text>

<rect class="op" x="460" y="635" width="395" height="155"/>
<circle class="badgeR" cx="480" cy="655" r="14"/><text class="badgeText" x="480" y="659">D</text>
<text class="label" x="506" y="659">Stand up TLS relay</text>
<text class="sub" x="472" y="683">Self-signed cert on TCP/99</text>
<text class="sub" x="472" y="699">Exploit-themed cert subject</text>
<text class="sub" x="472" y="715">Blends via Chrome-122 UA</text>
<text class="sub" x="472" y="731">T1573.002 Encrypted Channel</text>
<text class="mono" x="472" y="761">CN=exploit  O=exploit</text>
<text class="mono" x="472" y="779">fp c2ab9ada...583d8a15</text>

<rect class="op" x="460" y="805" width="395" height="155"/>
<circle class="badgeR" cx="480" cy="825" r="14"/><text class="badgeText" x="480" y="829">E</text>
<text class="label" x="506" y="829">JARLEASH administration</text>
<text class="sub" x="472" y="853">Java web-based file manager</text>
<text class="sub" x="472" y="869">FTP / SFTP / netcat servers</text>
<text class="sub" x="472" y="885">Config in Simplified Chinese</text>
<text class="sub" x="472" y="901">T1071.001 Web Protocol</text>
<text class="mono" x="472" y="931">startup: kill + respawn JVM</text>
<text class="mono" x="472" y="949">deployed on select nodes</text>

<rect class="op" x="460" y="975" width="395" height="155"/>
<circle class="badgeR" cx="480" cy="995" r="14"/><text class="badgeText" x="480" y="999">F</text>
<text class="label" x="506" y="999">LEASHTEST and iterate</text>
<text class="sub" x="472" y="1023">MIPS capability probe</text>
<text class="sub" x="472" y="1039">iot-test; prints Hello World!</text>
<text class="sub" x="472" y="1055">Recompile per victim/arch</text>
<text class="sub" x="472" y="1071">T1587.001 tooling development</text>
<text class="mono" x="472" y="1101">near-zero VirusTotal overlap</text>
<text class="mono" x="472" y="1119">detect structure, not hash</text>
<path class="arrowX" d="M460 372 L425 337" marker-end="url(#ah)" color="#7a3a7a"/>
<path class="arrowX" d="M460 712 L425 787" marker-end="url(#ah)" color="#7a3a7a"/>
<path class="arrow" d="M227 255 L227 270" marker-end="url(#ah)" color="#2a4a6a"/>
<path class="arrow" d="M227 405 L227 420" marker-end="url(#ah)" color="#2a4a6a"/>
<path class="arrow" d="M227 555 L227 570" marker-end="url(#ah)" color="#2a4a6a"/>
<path class="arrow" d="M227 705 L227 720" marker-end="url(#ah)" color="#2a4a6a"/>
<path class="arrow" d="M227 855 L227 870" marker-end="url(#ah)" color="#2a4a6a"/>
<path class="arrow" d="M227 1005 L227 1020" marker-end="url(#ah)" color="#2a4a6a"/>

<rect class="footer" x="20" y="1175" width="840" height="95"/>
<text class="footerH" x="34" y="1200">Detection anchors</text>
<text class="footerT" x="34" y="1222">Raw-IP fetch on :8088 / :2222 -&gt; chmod +x -&gt; exec  -  iptables INPUT ACCEPT + new listener (DOGLEASH)  -  outbound TLS on TCP/99</text>
<text class="footerT" x="34" y="1240">ff-agent / nz1.0 / iot-test strings  -  Chrome/122 UA from a Linux router  -  self-signed cert CN=exploit</text>
<text class="footerT" x="34" y="1258">Hashes: LONGLEASH / DOGLEASH (multi-arch) / JARLEASH / LEASHTEST  -  ORB infra rotates: match topology, not IP</text>
</svg>
