<svg xmlns="http://www.w3.org/2000/svg" viewBox="0 0 880 1280" role="img" aria-labelledby="t d">
<title id="t">RoboVPN / Neunative residential-proxy SDK kill chain</title>
<desc id="d">Two-lane kill chain. Left lane is the user Windows host: a clean-looking free VPN install, an inverted activation where idling or disconnecting turns the relay on, TLS registration to the director lb.gmslb.net, the proprietary TLV relay on port 6000 exiting through the user residential IP, and the ADB 0.0.0.0:5555 destination-filter gap that turns the exit node into a foothold. Right lane is the operator infrastructure: the gmslb.net director and load balancer, the ~360-relay fleet on rotating front domains viki-play.com and star-layer.com, the proxy customers who choose destinations, and the shared Vo1d and Popa Android TV backend proving one platform across device populations. Detection anchors at the bottom map to the Sigma, KQL, YARA, Suricata and PEAK hunt artifacts in this folder.</desc>
<defs>
<style><![CDATA[
.bg { fill: #ffffff; }
.head { font: 700 18px sans-serif; fill: #0a0a0a; }
.meta { font: 11px sans-serif; fill: #404040; }
.laneL { fill: #f3f7fb; stroke: #5a7da6; stroke-width: 1.2; }
.laneR { fill: #faf3ee; stroke: #b07a3a; stroke-width: 1.2; }
.laneLabelL { font: 700 12px sans-serif; fill: #2a4a6a; }
.laneLabelR { font: 700 12px sans-serif; fill: #8a5520; }
.stage { fill: #ffffff; stroke: #5a7da6; stroke-width: 1.1; }
.stageK { fill: #fdecec; stroke: #b03030; stroke-width: 1.4; }
.op { fill: #ffffff; stroke: #b07a3a; stroke-width: 1.1; }
.opK { fill: #fdecec; stroke: #b03030; stroke-width: 1.4; }
.band { fill: #f7f1eb; stroke: #c08555; stroke-width: 1.2; }
.badge { fill: #5a7da6; }
.badgeK { fill: #b03030; }
.badgeR { fill: #b07a3a; }
.badgeText { font: 700 12px sans-serif; fill: #ffffff; text-anchor: middle; }
.label { font: 700 13px sans-serif; fill: #0a0a0a; }
.sub { font: 11px sans-serif; fill: #303030; }
.mono { font: 10.5px ui-monospace, "SFMono-Regular", Consolas, monospace; fill: #303030; }
.footer { fill: #f6f6f4; stroke: #888; stroke-width: 1; }
.footerH { font: 700 12px sans-serif; fill: #1a1a1a; }
.footerT { font: 10.5px sans-serif; fill: #1a1a1a; }
.arrow { stroke: #2a4a6a; stroke-width: 1.6; fill: none; }
.arrowX { stroke: #7a3a7a; stroke-width: 1.6; fill: none; stroke-dasharray: 5 3; }
.arrowR { stroke: #8a5520; stroke-width: 1.6; fill: none; }
.acc-ransomware { fill: #b03030; }
.acc-espionage { fill: #2a4a6a; }
.acc-supply-chain { fill: #b07a3a; }
.acc-identity-cloud { fill: #6a4ca6; }
.acc-ot-ics { fill: #2f8f4e; }
.acc-edge-network { fill: #1d7a8c; }
.acc-mobile { fill: #c2569a; }
.acc-crypto-defi { fill: #d08a1f; }
.acc-malware-re { fill: #556070; }
.acc-other { fill: #6a6a6a; }
.accLabel { font: 700 11px sans-serif; fill: #ffffff; }
@media (prefers-color-scheme: dark) {
  .bg { fill: #0d1117; }
  .head, .label, .footerH { fill: #f0f0f0; }
  .meta, .sub, .footerT { fill: #c8c8c8; }
  .mono { fill: #c0d0e0; }
  .laneL { fill: #182230; stroke: #7aa6d0; }
  .laneR { fill: #2a2418; stroke: #d09a5a; }
  .laneLabelL { fill: #a8c6e2; }
  .laneLabelR { fill: #e2bf8a; }
  .stage { fill: #1c2530; stroke: #7aa6d0; }
  .stageK { fill: #3a1818; stroke: #e06060; }
  .op { fill: #2a2418; stroke: #d09a5a; }
  .opK { fill: #3a1818; stroke: #e06060; }
  .band { fill: #2a2418; stroke: #d09a5a; }
  .badge { fill: #7aa6d0; }
  .badgeK { fill: #e06060; }
  .badgeR { fill: #d09a5a; }
  .badgeText { fill: #0d1117; }
  .footer { fill: #1a1d22; stroke: #555; }
  .arrow { stroke: #a8c6e2; }
  .arrowX { stroke: #c898d0; }
  .arrowR { stroke: #e2bf8a; }
}
]]></style>
<marker id="ah" viewBox="0 0 10 10" refX="9" refY="5" markerWidth="7" markerHeight="7" orient="auto">
  <path d="M0,0 L10,5 L0,10 z" fill="currentColor"/>
</marker>
</defs>
<rect class="bg" x="0" y="0" width="880" height="1280"/>
  <rect class="acc-malware-re" x="0" y="0" width="880" height="8"/>
<text class="head" x="20" y="40">RoboVPN / Neunative: free VPN ships a residential-proxy botnet SDK</text>
<text class="meta" x="20" y="60">Vendor: Nokia Deepfield ERT · Date: 2026-06-18 · Backend: Vo1d/Popa (gmslb.net) · Day 62</text>

<rect class="laneL" x="20" y="85" width="410" height="1080" rx="6"/>
<rect class="laneR" x="450" y="85" width="410" height="1080" rx="6"/>
<text class="laneLabelL" x="30" y="105">User Windows host (exit node)</text>
<text class="laneLabelR" x="460" y="105">Operator infrastructure</text>

<!-- LEFT STAGES -->
<rect class="stage" x="30" y="120" width="395" height="135" rx="5"/>
<circle class="badge" cx="50" cy="140" r="14"/><text class="badgeText" x="50" y="144">1</text>
<text class="label" x="74" y="144">Free VPN install</text>
<text class="sub" x="40" y="168">RoboVPN.msi (Cyberkick Ltd., WiX 3.14)</text>
<text class="sub" x="40" y="184">12 MB .NET single-file bundle + 4 native DLLs</text>
<text class="sub" x="40" y="200">Neunative SDK bundled as a NuGet dependency</text>
<text class="mono" x="40" y="226">ea40641a... RoboVPN.msi</text>
<text class="mono" x="40" y="244">NeunativeNG 8.0.36 (T1195.002)</text>

<rect class="stageK" x="30" y="270" width="395" height="135" rx="5"/>
<circle class="badgeK" cx="50" cy="290" r="14"/><text class="badgeText" x="50" y="294">2</text>
<text class="label" x="74" y="294">Inverted activation</text>
<text class="sub" x="40" y="318">OpenPeer() fires from idle / disconnect / login</text>
<text class="sub" x="40" y="334">ClosePeer() only on Connect() -- relay off</text>
<text class="sub" x="40" y="350">30-90 min random delay defeats sandbox window</text>
<text class="mono" x="40" y="376">relay ON while VPN OFF (T1496.002)</text>
<text class="mono" x="40" y="394">exits via user residential IP</text>

<rect class="stage" x="30" y="420" width="395" height="135" rx="5"/>
<circle class="badge" cx="50" cy="440" r="14"/><text class="badgeText" x="50" y="444">3</text>
<text class="label" x="74" y="444">Director registration</text>
<text class="sub" x="40" y="468">TLS GET to lb.gmslb.net:443 /regdev</text>
<text class="sub" x="40" y="484">UA "SDK" + pixel-perfect Chrome Accept header</text>
<text class="sub" x="40" y="500">server geolocates egress IP, returns relay list</text>
<text class="mono" x="40" y="526">/regdev?...sdkv=8.0.36 (T1071.001)</text>
<text class="mono" x="40" y="544">HKCU\Software\Neunative _uuid</text>

<rect class="stage" x="30" y="570" width="395" height="135" rx="5"/>
<circle class="badge" cx="50" cy="590" r="14"/><text class="badgeText" x="50" y="594">4</text>
<text class="label" x="74" y="594">TLV relay on port 6000</text>
<text class="sub" x="40" y="618">proprietary binary TLV over TLS to sN.&lt;front&gt;.com</text>
<text class="sub" x="40" y="634">OpenTunnel 0xa070: customer picks host+port</text>
<text class="sub" x="40" y="650">worker thread getaddrinfo, relays both ways</text>
<text class="mono" x="40" y="676">TCP 6000 (T1571 / T1090)</text>
<text class="mono" x="40" y="694">%AppData%\NeuNative.log Tunnel%llu</text>

<rect class="stageK" x="30" y="720" width="395" height="135" rx="5"/>
<circle class="badgeK" cx="50" cy="740" r="14"/><text class="badgeText" x="50" y="744">5</text>
<text class="label" x="74" y="744">Destination-filter gap</text>
<text class="sub" x="40" y="768">denylist blocks RFC1918 / 127/8 / 169.254</text>
<text class="sub" x="40" y="784">misses 0.0.0.0/8 (=loopback) and port 5555</text>
<text class="sub" x="40" y="800">OpenTunnel(0.0.0.0:5555) reaches ADB daemon</text>
<text class="mono" x="40" y="826">exit node becomes foothold (T1133)</text>
<text class="mono" x="40" y="844">:5555 = 3rd-busiest Popa port</text>

<rect class="stage" x="30" y="870" width="395" height="135" rx="5"/>
<circle class="badge" cx="50" cy="890" r="14"/><text class="badgeText" x="50" y="894">6</text>
<text class="label" x="74" y="894">Bandwidth / IP hijack</text>
<text class="sub" x="40" y="918">third-party traffic carried by user connection</text>
<text class="sub" x="40" y="934">no opt-out toggle; terms vs behavior gap</text>
<text class="sub" x="40" y="950">consent never checked by the backend</text>
<text class="mono" x="40" y="976">resource hijacking (T1496.002)</text>
<text class="mono" x="40" y="994">one detection covers all publishers</text>

<rect class="stage" x="30" y="1020" width="395" height="135" rx="5"/>
<circle class="badge" cx="50" cy="1040" r="14"/><text class="badgeText" x="50" y="1044">7</text>
<text class="label" x="74" y="1044">Downstream abuse</text>
<text class="sub" x="40" y="1068">Popa nodes fetch botnet loaders (Synthient)</text>
<text class="sub" x="40" y="1084">Potassium / Gafgyt / IranBot via :5555</text>
<text class="sub" x="40" y="1100">fleet reused for L7 DDoS (T1498)</text>
<text class="mono" x="40" y="1126">117.55.203.189 /jewishgoldowner/arm7</text>
<text class="mono" x="40" y="1144">83.168.110.191 iran.* (decaying)</text>

<!-- RIGHT OPS -->
<rect class="op" x="460" y="125" width="395" height="155" rx="5"/>
<circle class="badgeR" cx="480" cy="145" r="14"/><text class="badgeText" x="480" y="149">A</text>
<text class="label" x="504" y="149">Director / load balancer</text>
<text class="sub" x="470" y="173">gmslb.net (apex) -- hardcoded Vo1d/Popa C2</text>
<text class="sub" x="470" y="189">lb.gmslb.net:443 nginx/1.20.1 + Express</text>
<text class="sub" x="470" y="205">returns dev_asn/city/country + peer_servers</text>
<text class="sub" x="470" y="221">mng_extra field empty -- an invitation</text>
<text class="mono" x="470" y="247">serves same relay list to EULA or malware</text>
<text class="mono" x="470" y="265">enrollment = T1071.001 / T1573.002</text>

<rect class="op" x="460" y="295" width="395" height="155" rx="5"/>
<circle class="badgeR" cx="480" cy="315" r="14"/><text class="badgeText" x="480" y="319">B</text>
<text class="label" x="504" y="319">Relay fleet (~360)</text>
<text class="sub" x="470" y="343">datacenter relays, ~30 rotating front domains</text>
<text class="sub" x="470" y="359">viki-play.com / star-layer.com</text>
<text class="sub" x="470" y="375">pattern sN.&lt;front&gt;.com:6000 (TLS)</text>
<text class="sub" x="470" y="391">geo-relevant subset per egress IP</text>
<text class="mono" x="470" y="417">relays = datacenter; exits = the people</text>
<text class="mono" x="470" y="435">IP blocklists age out -- block director</text>

<rect class="op" x="460" y="465" width="395" height="155" rx="5"/>
<circle class="badgeR" cx="480" cy="485" r="14"/><text class="badgeText" x="480" y="489">C</text>
<text class="label" x="504" y="489">Proxy customers</text>
<text class="sub" x="470" y="513">book a route; pick target host + port</text>
<text class="sub" x="470" y="529">OpenTunnel target relayed by user machine</text>
<text class="sub" x="470" y="545">residential-proxy market = L7 DDoS source</text>
<text class="sub" x="470" y="561">Qurium traces media attacks to proxy/VPNs</text>
<text class="mono" x="470" y="587">customer chooses dest, victim dials it</text>
<text class="mono" x="470" y="605">multi-hop proxy (T1090.003)</text>

<rect class="op" x="460" y="635" width="395" height="155" rx="5"/>
<circle class="badgeR" cx="480" cy="655" r="14"/><text class="badgeText" x="480" y="659">D</text>
<text class="label" x="504" y="659">Vo1d/Popa backend</text>
<text class="sub" x="470" y="683">Dr.Web 2024-09: ~1.3M Android TV boxes</text>
<text class="sub" x="470" y="699">XLab 2025-03: ~1.6M, Popa proxy plugin</text>
<text class="sub" x="470" y="715">same director + same TLV protocol (RTTI)</text>
<text class="sub" x="470" y="731">PDB tree android-native-sdk = cross-platform</text>
<text class="mono" x="470" y="757">one platform, many device populations</text>
<text class="mono" x="470" y="775">T1584.005 Compromise Infra: Botnet</text>

<rect class="op" x="460" y="805" width="395" height="155" rx="5"/>
<circle class="badgeR" cx="480" cy="825" r="14"/><text class="badgeText" x="480" y="829">E</text>
<text class="label" x="504" y="829">Commercialization</text>
<text class="sub" x="470" y="853">SDK affiliate tag = "publisher name"</text>
<text class="sub" x="470" y="869">platform rents proxy capacity to embedders</text>
<text class="sub" x="470" y="885">also in pirated apps, MediaGet, SmartTube</text>
<text class="sub" x="470" y="901">linked to NetNut / Alarum Tech (NASDAQ)</text>
<text class="mono" x="470" y="927">attribution medium, company-disputed</text>
<text class="mono" x="470" y="945">Qurium / Synthient / Krebs 2026-06</text>

<rect class="op" x="460" y="975" width="395" height="155" rx="5"/>
<circle class="badgeR" cx="480" cy="995" r="14"/><text class="badgeText" x="480" y="999">F</text>
<text class="label" x="504" y="999">Why a DDoS team cares</text>
<text class="sub" x="470" y="1023">weak proxy SDK = initial-access vector</text>
<text class="sub" x="470" y="1039">exit-node-to-foothold via :5555 ADB</text>
<text class="sub" x="470" y="1055">recruited devices feed DDoS botnets</text>
<text class="sub" x="470" y="1071">residential proxy = botnet minus consent</text>
<text class="mono" x="470" y="1097">Synthient + Infoblox observed loaders</text>
<text class="mono" x="470" y="1115">block director domain + port 6000 beacon</text>

<!-- ARROWS: vertical left flow -->
<g color="#2a4a6a">
<path class="arrow" d="M227,255 L227,270" marker-end="url(#ah)"/>
<path class="arrow" d="M227,405 L227,420" marker-end="url(#ah)"/>
<path class="arrow" d="M227,555 L227,570" marker-end="url(#ah)"/>
<path class="arrow" d="M227,705 L227,720" marker-end="url(#ah)"/>
<path class="arrow" d="M227,855 L227,870" marker-end="url(#ah)"/>
<path class="arrow" d="M227,1005 L227,1020" marker-end="url(#ah)"/>
</g>
<!-- cross-lane: registration to director, relay to fleet, foothold to backend -->
<g color="#7a3a7a">
<path class="arrowX" d="M425,487 L460,200" marker-end="url(#ah)"/>
<path class="arrowX" d="M425,637 L460,375" marker-end="url(#ah)"/>
<path class="arrowX" d="M425,787 L460,710" marker-end="url(#ah)"/>
</g>

<!-- FOOTER -->
<rect class="footer" x="20" y="1175" width="840" height="95" rx="6"/>
<text class="footerH" x="32" y="1198">Detection anchors (this folder)</text>
<text class="footerT" x="32" y="1218">Network: director gmslb.net /regdev + UA SDK (sigma 1, kql 1, suricata 9620001-2/5); relay TCP 6000 (sigma 3, kql 3, suricata 9620003-4).</text>
<text class="footerT" x="32" y="1236">Host: NeunativeWin/NG.dll load + HKCU\Software\Neunative (sigma 2, kql 2, yara). Lateral: ADB 0.0.0.0:5555 (kql 4, suricata 9620006).</text>
<text class="footerT" x="32" y="1254">Hunts: H1 register-then-relay, H2 relay-while-VPN-idle, H3 ADB foothold. Durable anchors = director domain + port-6000 behavior, not relay IPs.</text>
</svg>
