<svg xmlns="http://www.w3.org/2000/svg" viewBox="0 0 880 1280" role="img" aria-labelledby="t d">
<title id="t">Dire Wolf ransomware kill chain</title>
<desc id="d">Two-lane diagram. Left lane (victim Windows host): suspected initial access via VPN exploit, stolen accounts, infostealer logs or phishing; the Global direwolfAppMutex mutex plus C runfinish.exe marker execution guardrail; termination of backup, database and security services and processes; the critical pre-encryption recovery-inhibition burst with vssadmin, wbadmin and bcdedit; event-log destruction via a WMI-driven eventlog kill loop and wevtutil cl; critical Curve25519 plus ChaCha20 encryption appending the .direwolf extension and dropping HowToRecoveryFiles.txt; and the forced reboot with self-delete finale. Right lane (operator build and extortion machinery): the Go UPX build with an 8x CPU worker pool, the backup and security kill lists, the recovery-denial command set, the Tor leak site and qTox negotiation, the tor-browser.io social-engineering infrastructure, and victimology and attribution. Detection anchors: the recovery-inhibition burst, the eventlog kill loop, and the runfinish.exe marker plus forced reboot and self-delete chain, all host-behavioral and surviving hash and onion rotation.</desc>
<defs>
<style><![CDATA[
.bg { fill: #ffffff; }
.head { font: 700 18px sans-serif; fill: #0a0a0a; }
.meta { font: 11px sans-serif; fill: #404040; }
.laneL { fill: #f3f7fb; stroke: #5a7da6; stroke-width: 1.2; }
.laneR { fill: #faf3ee; stroke: #b07a3a; stroke-width: 1.2; }
.laneLabelL { font: 700 12px sans-serif; fill: #2a4a6a; }
.laneLabelR { font: 700 12px sans-serif; fill: #8a5520; }
.stage { fill: #ffffff; stroke: #5a7da6; stroke-width: 1.1; }
.stageK { fill: #fdecec; stroke: #b03030; stroke-width: 1.4; }
.op { fill: #ffffff; stroke: #b07a3a; stroke-width: 1.1; }
.opK { fill: #fdecec; stroke: #b03030; stroke-width: 1.4; }
.band { fill: #f7f1eb; stroke: #c08555; stroke-width: 1.2; }
.badge { fill: #5a7da6; }
.badgeK { fill: #b03030; }
.badgeR { fill: #b07a3a; }
.badgeText { font: 700 12px sans-serif; fill: #ffffff; text-anchor: middle; }
.label { font: 700 13px sans-serif; fill: #0a0a0a; }
.sub { font: 11px sans-serif; fill: #303030; }
.mono { font: 10.5px ui-monospace, "SFMono-Regular", Consolas, monospace; fill: #303030; }
.footer { fill: #f6f6f4; stroke: #888; stroke-width: 1; }
.footerH { font: 700 12px sans-serif; fill: #1a1a1a; }
.footerT { font: 10.5px sans-serif; fill: #1a1a1a; }
.arrow { stroke: #2a4a6a; stroke-width: 1.6; fill: none; }
.arrowX { stroke: #7a3a7a; stroke-width: 1.6; fill: none; stroke-dasharray: 5 3; }
.arrowR { stroke: #8a5520; stroke-width: 1.6; fill: none; }
.acc-ransomware { fill: #b03030; }
.acc-espionage { fill: #2a4a6a; }
.acc-supply-chain { fill: #b07a3a; }
.acc-identity-cloud { fill: #6a4ca6; }
.acc-ot-ics { fill: #2f8f4e; }
.acc-edge-network { fill: #1d7a8c; }
.acc-mobile { fill: #c2569a; }
.acc-crypto-defi { fill: #d08a1f; }
.acc-malware-re { fill: #556070; }
.acc-other { fill: #6a6a6a; }
.accLabel { font: 700 11px sans-serif; fill: #ffffff; }
@media (prefers-color-scheme: dark) {
  .bg { fill: #0d1117; }
  .head, .label, .footerH { fill: #f0f0f0; }
  .meta, .sub, .footerT { fill: #c8c8c8; }
  .mono { fill: #c0d0e0; }
  .laneL { fill: #182230; stroke: #7aa6d0; }
  .laneR { fill: #2a2418; stroke: #d09a5a; }
  .laneLabelL { fill: #a8c6e2; }
  .laneLabelR { fill: #e2bf8a; }
  .stage { fill: #1c2530; stroke: #7aa6d0; }
  .stageK { fill: #3a1818; stroke: #e06060; }
  .op { fill: #2a2418; stroke: #d09a5a; }
  .opK { fill: #3a1818; stroke: #e06060; }
  .band { fill: #2a2418; stroke: #d09a5a; }
  .badge { fill: #7aa6d0; }
  .badgeK { fill: #e06060; }
  .badgeR { fill: #d09a5a; }
  .badgeText { fill: #0d1117; }
  .footer { fill: #1a1d22; stroke: #555; }
  .arrow { stroke: #a8c6e2; }
  .arrowX { stroke: #c898d0; }
  .arrowR { stroke: #e2bf8a; }
}
]]></style>
<marker id="ah" viewBox="0 0 10 10" refX="9" refY="5" markerWidth="7" markerHeight="7" orient="auto">
  <path d="M0,0 L10,5 L0,10 z" fill="currentColor"/>
</marker>
</defs>
<rect class="bg" x="0" y="0" width="880" height="1280"/>
  <rect class="acc-ransomware" x="0" y="0" width="880" height="8"/>
<text class="head" x="20" y="36">Dire Wolf - Golang double-extortion ransomware</text>
<text class="meta" x="20" y="58">Vendor: Trustwave / AhnLab ASEC / Protos - Date: 2026-06-26 (CYFIRMA re-profile) - Cluster: Dire Wolf - Day 64</text>

<rect class="laneL" x="20" y="85" width="410" height="1080"/>
<rect class="laneR" x="450" y="85" width="410" height="1080"/>
<text class="laneLabelL" x="30" y="104">VICTIM - Windows host</text>
<text class="laneLabelR" x="460" y="104">OPERATOR - build and extortion machinery</text>

<!-- LEFT STAGE 1 -->
<rect class="stage" x="30" y="120" width="395" height="135"/>
<circle class="badge" cx="50" cy="140" r="14"/><text class="badgeText" x="50" y="144">1</text>
<text class="label" x="74" y="144">Initial access (suspected)</text>
<text class="sub" x="40" y="168">VPN-appliance exploit / stolen accounts</text>
<text class="sub" x="40" y="184">Infostealer logs / phishing; LOTL lateral</text>
<text class="sub" x="40" y="200">Not confirmed per intrusion</text>
<text class="mono" x="40" y="226">T1190 / T1133 / T1078 / T1566</text>
<text class="mono" x="40" y="244">T1003.001 (suspected cred dumping)</text>

<!-- LEFT STAGE 2 -->
<rect class="stage" x="30" y="270" width="395" height="135"/>
<circle class="badge" cx="50" cy="290" r="14"/><text class="badgeText" x="50" y="294">2</text>
<text class="label" x="74" y="294">Execution guardrail</text>
<text class="sub" x="40" y="318">Mutex Global\direwolfAppMutex</text>
<text class="sub" x="40" y="334">Marker check C:\runfinish.exe</text>
<text class="sub" x="40" y="350">Aborts + self-deletes if already run</text>
<text class="mono" x="40" y="376">T1480 - Execution Guardrails</text>
<text class="mono" x="40" y="394">arg -d targets a directory</text>

<!-- LEFT STAGE 3 -->
<rect class="stage" x="30" y="420" width="395" height="135"/>
<circle class="badge" cx="50" cy="440" r="14"/><text class="badgeText" x="50" y="444">3</text>
<text class="label" x="74" y="444">Kill backup / DB / security</text>
<text class="sub" x="40" y="468">Veeam, Veritas, MSSQL, Exchange</text>
<text class="sub" x="40" y="484">VMware, Symantec, Sophos terminated</text>
<text class="sub" x="40" y="500">Frees handles, blinds defenders</text>
<text class="mono" x="40" y="526">T1489 - Service Stop</text>
<text class="mono" x="40" y="544">T1562.001 - Impair Defenses</text>

<!-- LEFT STAGE 4 (critical) -->
<rect class="stageK" x="30" y="570" width="395" height="135"/>
<circle class="badgeK" cx="50" cy="590" r="14"/><text class="badgeText" x="50" y="594">4</text>
<text class="label" x="74" y="594">Inhibit recovery (critical)</text>
<text class="sub" x="40" y="618">vssadmin delete shadows /all /quiet</text>
<text class="sub" x="40" y="634">wbadmin delete backup -keepVersions:0</text>
<text class="sub" x="40" y="650">bcdedit recoveryenabled No</text>
<text class="mono" x="40" y="676">T1490 - runs BEFORE any rename</text>
<text class="mono" x="40" y="694">bootstatuspolicy ignoreallfailures</text>

<!-- LEFT STAGE 5 -->
<rect class="stage" x="30" y="720" width="395" height="135"/>
<circle class="badge" cx="50" cy="740" r="14"/><text class="badgeText" x="50" y="744">5</text>
<text class="label" x="74" y="744">Destroy event logs</text>
<text class="sub" x="40" y="768">WMI eventlog PID -> taskkill, looped</text>
<text class="sub" x="40" y="784">Re-kills the service if it restarts</text>
<text class="sub" x="40" y="800">wevtutil cl App/System/Security/Setup</text>
<text class="mono" x="40" y="826">T1070.001 - Clear Event Logs</text>
<text class="mono" x="40" y="844">T1047 - WMI</text>

<!-- LEFT STAGE 6 (critical) -->
<rect class="stageK" x="30" y="870" width="395" height="135"/>
<circle class="badgeK" cx="50" cy="890" r="14"/><text class="badgeText" x="50" y="894">6</text>
<text class="label" x="74" y="894">Encryption (critical)</text>
<text class="sub" x="40" y="918">Curve25519 + ChaCha20, SHA-256 derive</text>
<text class="sub" x="40" y="934">Intermittent: &gt;1MB encrypts first 1MB</text>
<text class="sub" x="40" y="950">Ext .direwolf; note HowToRecoveryFiles</text>
<text class="mono" x="40" y="976">T1486 - Data Encrypted for Impact</text>
<text class="mono" x="40" y="994">8x logical-CPU worker pool</text>

<!-- LEFT STAGE 7 -->
<rect class="stage" x="30" y="1020" width="395" height="135"/>
<circle class="badge" cx="50" cy="1040" r="14"/><text class="badgeText" x="50" y="1044">7</text>
<text class="label" x="74" y="1044">Forced reboot + self-delete</text>
<text class="sub" x="40" y="1068">Marker C:\runfinish.exe written</text>
<text class="sub" x="40" y="1084">cmd /c start shutdown -r -f -t 10</text>
<text class="sub" x="40" y="1100">timeout|ping ... &amp; del (erases self)</text>
<text class="mono" x="40" y="1126">T1529 - Shutdown/Reboot</text>
<text class="mono" x="40" y="1144">T1070.004 - File Deletion</text>

<!-- RIGHT OP A -->
<rect class="op" x="460" y="125" width="395" height="155"/>
<circle class="badgeR" cx="480" cy="145" r="14"/><text class="badgeText" x="480" y="149">A</text>
<text class="label" x="504" y="149">Go / UPX build</text>
<text class="sub" x="470" y="173">Golang binary, UPX-packed</text>
<text class="sub" x="470" y="189">8x logical-CPU goroutine pool</text>
<text class="sub" x="470" y="205">Spikes CPU and disk queue on host</text>
<text class="sub" x="470" y="221">No config file; CLI-driven</text>
<text class="mono" x="470" y="251">T1027.002 - Software Packing</text>
<text class="mono" x="470" y="269">27d90611... / 8fdee531...</text>

<!-- RIGHT OP B -->
<rect class="op" x="460" y="295" width="395" height="155"/>
<circle class="badgeR" cx="480" cy="315" r="14"/><text class="badgeText" x="480" y="319">B</text>
<text class="label" x="504" y="319">Kill lists (services + procs)</text>
<text class="sub" x="470" y="343">BackupExecJobEngine, SQLSERVERAGENT</text>
<text class="sub" x="470" y="359">VeeamTransportSvc, MSExchangeIS</text>
<text class="sub" x="470" y="375">sqlservr.exe, vss.exe, outlook.exe</text>
<text class="sub" x="470" y="391">Backup + DB + security disabled</text>
<text class="mono" x="470" y="421">drives victim Stage 3</text>
<text class="mono" x="470" y="439">T1489 / T1562.001</text>

<!-- RIGHT OP C -->
<rect class="op" x="460" y="465" width="395" height="155"/>
<circle class="badgeR" cx="480" cy="485" r="14"/><text class="badgeText" x="480" y="489">C</text>
<text class="label" x="504" y="489">Recovery-denial command set</text>
<text class="sub" x="470" y="513">vssadmin / wbadmin / bcdedit</text>
<text class="sub" x="470" y="529">wevtutil cl for the core channels</text>
<text class="sub" x="470" y="545">Looped eventlog-service kill</text>
<text class="sub" x="470" y="561">Earliest durable behavioral tell</text>
<text class="mono" x="470" y="591">drives victim Stage 4 + 5</text>
<text class="mono" x="470" y="609">T1490 / T1070.001</text>

<!-- RIGHT OP D (critical) -->
<rect class="opK" x="460" y="635" width="395" height="155"/>
<circle class="badgeK" cx="480" cy="655" r="14"/><text class="badgeText" x="480" y="659">D</text>
<text class="label" x="504" y="659">Double extortion</text>
<text class="sub" x="470" y="683">Tor leak site (direwolfcdkv5...onion)</text>
<text class="sub" x="470" y="699">qTox / Tox negotiation channel</text>
<text class="sub" x="470" y="715">Per-victim roomID + username in note</text>
<text class="sub" x="470" y="731">Demand ~USD 500,000</text>
<text class="mono" x="470" y="761">T1657 - Financial Theft</text>
<text class="mono" x="470" y="779">T1041 - Exfil over leak channel</text>

<!-- RIGHT OP E -->
<rect class="op" x="460" y="805" width="395" height="155"/>
<circle class="badgeR" cx="480" cy="825" r="14"/><text class="badgeText" x="480" y="829">E</text>
<text class="label" x="504" y="829">Social-engineering infra</text>
<text class="sub" x="470" y="853">tor-browser[.]io + subdomains</text>
<text class="sub" x="470" y="869">www / sitemap / sitemaps fronts</text>
<text class="sub" x="470" y="885">Credential harvesting / lures</text>
<text class="sub" x="470" y="901">Network IOCs decay - re-validate</text>
<text class="mono" x="470" y="931">suricata sid:9640001-9640006</text>
<text class="mono" x="470" y="949">infra-decay, not durable</text>

<!-- RIGHT OP F -->
<rect class="op" x="460" y="975" width="395" height="155"/>
<circle class="badgeR" cx="480" cy="995" r="14"/><text class="badgeText" x="480" y="999">F</text>
<text class="label" x="504" y="999">Victimology + attribution</text>
<text class="sub" x="470" y="1023">39+ victims since May 2025</text>
<text class="sub" x="470" y="1039">Mfg / tech / finance / healthcare</text>
<text class="sub" x="470" y="1055">SG, TH, PH, TW focus; active 2026</text>
<text class="sub" x="470" y="1071">Confidence: low actor / high family</text>
<text class="mono" x="470" y="1101">Did Asia 2026-06-12 (automotive)</text>
<text class="mono" x="470" y="1119">unattributed e-crime</text>

<!-- vertical flow arrows (left lane) -->
<path class="arrow" d="M227,255 L227,270" marker-end="url(#ah)"/>
<path class="arrow" d="M227,405 L227,420" marker-end="url(#ah)"/>
<path class="arrow" d="M227,555 L227,570" marker-end="url(#ah)"/>
<path class="arrow" d="M227,705 L227,720" marker-end="url(#ah)"/>
<path class="arrow" d="M227,855 L227,870" marker-end="url(#ah)"/>
<path class="arrow" d="M227,1005 L227,1020" marker-end="url(#ah)"/>
<!-- cross-lane: kill lists drive Stage 3; command set drives Stage 4/5; encryption feeds extortion -->
<path class="arrowR" d="M460,372 L425,490" marker-end="url(#ah)"/>
<path class="arrowR" d="M460,545 L425,640" marker-end="url(#ah)"/>
<path class="arrowX" d="M460,712 L425,905" marker-end="url(#ah)"/>

<rect class="footer" x="20" y="1175" width="840" height="95"/>
<text class="footerH" x="34" y="1200">Detection anchors (durable, survive hash and onion rotation)</text>
<text class="footerT" x="34" y="1222">- Recovery-inhibition burst: vssadmin + wbadmin + bcdedit from one parent, before any .direwolf rename</text>
<text class="footerT" x="34" y="1240">- Eventlog-kill loop: WMI eventlog-PID lookup then taskkill, repeated; then wevtutil cl - scope from SIEM, not host logs</text>
<text class="footerT" x="34" y="1258">- runfinish.exe marker + shutdown -r -f -t 10 + sleep|del self-delete; tor-browser[.]io and onion decay - re-validate</text>
</svg>
